<svg baseProfile="tiny" xmlns="http://www.w3.org/2000/svg" viewBox="0 0 32 32"><path d="M9.6 32c-1.8 0-3.8-.6-5.9-2.7-3.1-3.2-3-6.4-2.3-8.6.7-2.2 2.2-3.7 2.3-3.8l14.8-15c.1-.1 1.1-1.1 2.7-1.6 2.2-.7 4.3-.1 6 1.6 3.4 3.5 1.5 7.3 0 8.8l-14 14.2c-1 1.1-3.3 1.9-5.2 0-1.9-1.9-1-4.2 0-5.3l9.6-9.7c.5-.5 1.3-.5 1.7 0 .5.5.5 1.3 0 1.8l-9.6 9.7c-.4.4-.7 1.1 0 1.8.8.8 1.5.3 1.7 0l14-14.2c.4-.4 2.5-2.8 0-5.3-1.1-1.1-2.3-1.5-3.5-1-1 .3-1.7 1-1.7 1l-14.8 15c-.4.5-4.2 4.6 0 8.8 4.2 4.3 8.2.4 8.7 0l14.8-15c.5-.5 1.3-.5 1.7 0 .5.5.5 1.3 0 1.8l-14.8 15c-.1.1-1.5 1.5-3.7 2.3-.7.2-1.6.4-2.5.4z"/></svg>