<?xml version="1.0" encoding="utf-8"?>
<!-- Generator: Adobe Illustrator 17.1.0, SVG Export Plug-In . SVG Version: 6.00 Build 0)  -->
<!DOCTYPE svg PUBLIC "-//W3C//DTD SVG 1.1 Tiny//EN" "http://www.w3.org/Graphics/SVG/1.1/DTD/svg11-tiny.dtd">
<svg version="1.1" baseProfile="tiny" id="Layer_1" xmlns="http://www.w3.org/2000/svg" xmlns:xlink="http://www.w3.org/1999/xlink"
	 x="0px" y="0px" viewBox="0 0 32 32" xml:space="preserve">
<path d="M28.6,20.1c0.2-0.6,0.4-1.3,0.4-2.1c0-3.3-2.7-6-6-6c-0.4,0-0.8,0-1.2,0.1C20.9,8.1,17.3,5,13,5c-5,0-9,4-9,9
	c0,0.8,0.1,1.5,0.3,2.3C1.8,17,0,19.3,0,22c0,3.3,2.7,6,6,6h22c2.2,0,4-1.8,4-4C32,22,30.5,20.4,28.6,20.1z"/>
</svg>
