<svg baseProfile="tiny" xmlns="http://www.w3.org/2000/svg" viewBox="0 0 32 32"><path d="M17 22h12v10h-12zM3 22h12v10h-12zM21.5 10c1.1-.5 2.2-1.1 3.1-1.9 2.4-2.2 2.8-5.3.9-7.1-.7-.7-1.8-1-2.9-1-1.6 0-3.3.7-4.6 1.9-.8.7-1.5 1.7-2 2.7-.5-1-1.2-2-2-2.7-1.3-1.2-3-1.9-4.6-1.9-1.1 0-2.2.3-2.9 1.1-1.9 1.7-1.4 4.8.9 7 .8.8 1.9 1.4 3.1 1.9h-7.5v10h12v-9.6c.4-.1.7-.3.9-.5 0 0 0-.1.1-.1 0 0 0 .1.1.1.3.2.6.4.9.5v9.6h12v-10h-7.5zm-13.6-6.2c0-.5.2-.8.3-.8.3-.3.9-.4 1.2-.4 1 0 2 .5 2.9 1.2 1.6 1.5 2.1 3.7 1.9 4.1 0 0-.2.1-.6.1-1.3 0-3.2-.8-4.4-1.9-1-.7-1.3-1.7-1.3-2.3zm11.8 0c.8-.8 1.9-1.2 2.9-1.2.3 0 .8 0 1.2.4.1.1.3.3.3.8 0 .6-.3 1.6-1.3 2.4-1.1 1.1-3 1.9-4.4 1.9-.4 0-.6-.1-.6-.1-.2-.5.3-2.7 1.9-4.2z"/></svg>