<svg baseProfile="tiny" xmlns="http://www.w3.org/2000/svg" viewBox="0 0 32 32"><path d="M15.8 30.9c.1-.4.3-.8.5-1.2.6-1.5.9-3.2-.6-4.2-.7-.5-.7-.8-1.1-1.4-.6-1.1-1.4-2.1-.4-3.3 1.6-1.7-.3-1.6-1.3-2.3l-1.3-1.5c-1.1-.9-4.2-.9-4.3-2.8 0-.7-.9-3.3-1.6-3.6-.2.5 0 .9-.3 1.2-.2-.2-.2-.3-.2-.6-.1-.6 0-.8-.2-1.4-.6-1.8 1.5-3.1 2-4.7.3-.8.3-1.8-.2-2.2-4.1 2.9-6.8 7.7-6.8 13.1 0 8.7 7 15.8 15.6 16 0-.4.1-.8.2-1.1zM30 15.3c-.3-.7-.8-3-.8-3.5v-1.4c0-.6-.3-1.4-.2-2 0-.1.3-.7.5-1.1-.4-.6-.8-1.2-1.3-1.7.1.5.6 1.5.4 1.9-.1.2-.4.2-.9-.3-.7-.6-.9-2-1.3-2.8-.3-.5-.6-1-1-1.5-2.6-1.9-5.8-3-9.3-3-2.1 0-4.1.4-6 1.2.2 1.1 2.4 1.4 3.4 1.3 0 0 .9.1 1.1.2l-1.4 1c-.1.1-.9 1.2-.5 1.2.3 0 1 .1 1.2.3l.4.9c.1.1.2.2.3.2.5-.5.2-2.1.6-2.4.4-.1.8 0 1.1.2v.5c.6.3 2.3 1.1 2.7 1.4-.2.5-1 .5-1.1 1 0 .2.4.8.4.8-.4.5-1.4.1-2 .8l-1.1 1.8c-.4.5-1.1.8-1.3 1.5-.2.6.6 1.1 0 1.7-.3-.5-.3-1.3-.9-1.6-.5-.2-2.9 0-3.2.5-.4.5-.6 1.7-.3 2.3.2.3.9 1 1.3.7.5-.4.5-1.2 1.4-.7-1.4 1.7.3 1.1.9 2 .3.5-.4 1.2.2 1.6.6.4 1.1-.2 1.7.5.8-1.4 2.8-1.3 4.2-.9.7.2 1.1 1.2 1.9 1.3.3.1.5 0 .8 0 1.1.2.7 1.5 1.4 1.9.5.3 1.7 0 2.3.1.6.1 1.1.3 1.1 1 0 .4-1 2.2-1.3 2.7-.2.3-1 1.7-1.4 1.9-.5.3-1 .4-1.4.8-1.1 1.2-2.5 2.3-3.8 3.2-.3.2-.5.6-.8 1 7.6-.8 13.7-7.2 14-15.1-1 .5-1.6-.4-2-1.4zm-15.7-14.5c.1-.2.3-.3.6-.1 0 0-.4.7-.5.5-.1-.1-.1-.2-.1-.4zm2.1 2.7c-.4-.2-.7-.5-1.1-.9-.2-.2-.7-.4-1-.5.3-.4 1.6 0 1.9.3.1.1.2.3.2.5.1.4.2.8 0 .6zm2.8.2c-.5 0-1.1-1-1.3-1.4-.2-.4-2.3-.9-2-1.4 0-.1 1.7-.6 2.2-.5.8.2 1.3 1.1 2.1 1.5 0 0-.5 1.8-1 1.8z"/></svg>