<svg baseProfile="tiny" xmlns="http://www.w3.org/2000/svg" viewBox="0 0 32 32"><path d="M32 24.5c0-.3-.1-.7-.2-.9 0-.1 0-.1-.1-.2-.1-.2-.2-.4-.4-.6-.2-.2-.5-.4-.8-.5l-.6-.2c-.1 0-.1 0-.2-.1l-.7-.3-1-.4c-.4-.2-.7-.3-1-.4l-.7-.3-.3-.2c-.3-.2-.5-.4-.7-.6v-.1l-.2-.3c0-.2.1-.6.1-.7l.1-.3.1-.5c0-.2.1-.4.2-.6l.4-.6c.1-.2.2-.5.2-.7.1-.4.1-.8.1-1.2l-.1-.5v-1.4c0-.5-.1-.7-.2-1.1 0-.2-.2-.5-.4-.8 0-.1-.3-.2-.4-.3l-.1-.1s-.1-.2-.2-.2c-.3-.3-.6-.4-.9-.5-.4-.1-.9-.2-1.3-.1-.5 0-.9.2-1.3.3-.4.1-.7.4-1 .7-.3.3-.5.8-.6 1.3-.1.5-.2 1.2-.1 2l-.1.9.1.9c.1.4.2.8.4 1.1.1.1.2.2.3.2 0 .2.1.4.1.5l.1.4c0 .1 0 .2.1.3v.1c.1.1.2.7.2.9l-.1.2h-.1c-.1.1-.3.2-.4.4l1.8.8 1.2.5c.3.1.6.2.8.3.7.3 1.3.6 1.7 1 .3.3.6.7.8 1.1v.1s.1.2.1.4c.1.5.3 1 .3 1.6v.2h5v-1.5zM25.7 24.5c0-.1 0-.2-.1-.3-.1-.3-.3-.6-.6-.8-.3-.3-.7-.6-1.2-.7l-.9-.3-.2-.1c-.3-.1-.6-.3-1-.4l-1.5-.6-1.5-.6c-.3-.1-.7-.2-1-.4l-.4-.3c-.4-.3-.7-.6-1-.8v-.2l-.3-.4c0-.2.1-.9.2-1 .1-.1.1-.2.1-.4.1-.2.1-.5.1-.7.1-.3.1-.6.2-.8l.6-.8c.2-.3.3-.7.3-1 .1-.5.2-1.1.1-1.7-.1-.3-.1-.4-.1-.7v-2.1c0-.7-.1-1-.3-1.6-.1-.2-.3-.8-.5-1.1l-.6-.4-.2-.2c0-.1-.2-.2-.3-.3-.1-.6-.6-.8-1.1-.9-.6-.2-1.2-.2-1.9-.2-.6.1-1.3.3-1.8.5-.6.2-1.1.5-1.5 1-.3.5-.6 1.1-.8 1.9-.2.8-.3 1.8-.2 2.9.1.5-.1.9-.1 1.2 0 .4.1.8.2 1.2.1.6.3 1.2.6 1.6.1.1.3.3.4.3l.2.8.1.6c0 .2.1.3.1.4v.2c.1.2.2 1 .3 1.3l-.2.3h-.1l-.9.8c-.2.2-.5.4-.7.5-.2.1-.5.2-.7.2-.1 0-.2.1-.4.1l-1.2.5c-.5.2-1 .4-1.5.7l-1.2.5c-.1 0-.1 0-.2.1-.4.1-.7.3-1 .3-.5.2-.9.4-1.2.7-.3.3-.5.5-.6.9v.2c-.1.4-.2.9-.3 1.4v2.2h26v-2.2c0-.5-.1-.9-.2-1.3z"/></svg>