<svg baseProfile="tiny" xmlns="http://www.w3.org/2000/svg" viewBox="0 0 32 32"><path d="M16 0c-8.8 0-16 7.2-16 16s7.2 16 16 16 16-7.2 16-16-7.2-16-16-16zm2 27h-4v-4h4v4zm4.7-12.2c-.4.5-1.1 1.2-2.2 2.1l-1.1.8c-.6.5-1 1-1.2 1.6 0 .3-.2.9-.2 1.7h-4c.1-1.7.2-2.8.5-3.5.3-.6.9-1.4 2-2.2l1.1-.9c.4-.3.7-.6.9-.9.4-.6.6-1.2.6-1.8 0-.8-.2-1.5-.7-2.1-.4-.6-1.2-.9-2.4-.9s-2 .4-2.5 1.2c-.5.8-.7 1.6-.7 2.4h-4.4c.1-2.9 1.1-4.9 3-6.1 1.2-.8 2.6-1.2 4.4-1.2 2.3 0 4.2.5 5.7 1.6s2.3 2.7 2.3 4.8c-.1 1.4-.4 2.5-1.1 3.4z"/></svg>