<svg baseProfile="tiny" xmlns="http://www.w3.org/2000/svg" viewBox="0 0 32 32"><path d="M22 25c.1.5-.9 1.7-2.9 3.7s-3.9 3.1-5.7 3.3c-1.2.1-2.2-.1-2.8-.6-.6-.6-1-1.2-1.1-2-.1-.5 0-1 .1-1.4.1-.4.2-.9.3-1.4l3.1-9.2c.2-.5.3-.9.4-1.3.1-.3.1-.6.1-.8 0-.2-.1-.4-.2-.5-.1-.1-.2-.1-.4-.1-.4 0-1 .7-2 2s-1.5 1.9-1.7 2c-.2 0-.5-.1-.8-.4l-.4-.7c0-.3.2-.8.7-1.5.5-.7 1.1-1.5 1.9-2.3.7-.8 1.5-1.5 2.5-2.2 1-.7 1.9-1.1 2.7-1.2 1.3-.2 2.3.1 3.1.8.7.7 1.2 1.5 1.3 2.6.1.4.1.9 0 1.4 0 .5-.2 1-.4 1.6l-2.5 7.7c-.2.6-.3 1.2-.4 1.6-.1.4-.1.7-.1.8 0 .2.1.3.2.3h.3c.6-.1 1.3-.6 2.1-1.7.8-1 1.2-1.6 1.5-1.6.2 0 .4.1.7.4.3.4.4.6.4.7zm.8-21.4c.1 1.1-.2 2.1-.8 3-.7.9-1.6 1.4-2.7 1.5-1.1.1-2.1-.2-2.9-.9-.9-.7-1.4-1.6-1.5-2.7-.1-1.1.2-2.1.9-3 .7-.9 1.6-1.4 2.7-1.5 1.1-.1 2.1.2 3 .9.6.7 1.1 1.6 1.3 2.7z"/></svg>