<?xml version="1.0" encoding="utf-8"?>
<!-- Generator: Adobe Illustrator 17.1.0, SVG Export Plug-In . SVG Version: 6.00 Build 0)  -->
<!DOCTYPE svg PUBLIC "-//W3C//DTD SVG 1.1 Tiny//EN" "http://www.w3.org/Graphics/SVG/1.1/DTD/svg11-tiny.dtd">
<svg version="1.1" baseProfile="tiny" id="Layer_1" xmlns="http://www.w3.org/2000/svg" xmlns:xlink="http://www.w3.org/1999/xlink"
	 x="0px" y="0px" viewBox="0 0 32 32" xml:space="preserve">
<path d="M28,7c0-0.6-0.4-1-1-1H13c-1,0-1-0.4-1-1s-0.4-1-1-1H3C2.4,4,2,4.4,2,5s0,1-1,1C0.4,6,0,6.4,0,7v7l0.9-5C1,8.4,1.5,8,2.3,8
	H28V7z M31,10H4c-0.6,0-0.9,0.3-1,1L0,28h28l4-17C32.1,10.5,31.6,10,31,10z"/>
</svg>
