<svg baseProfile="tiny" xmlns="http://www.w3.org/2000/svg" viewBox="0 0 32 32"><path d="M0 8c0-1.5.4-3.1 1.2-4.6.7-1.5 1.8-2.7 3.2-3.4h1c.3 0 .9 0 1.4.1.5 0 1.1.1 1.3.2.2.2.4.5.5.9l.2.6c.2.2.2.4.3.5.1.2.2.7.5 1.3.5 1.3 1 2.7 1.4 3.8.2.6.3.9.3 1.1 0 1-.8 1.8-1.6 2.5-.9.7-1.7 1.3-1.7 1.9 0 .5.6 1.4.9 1.9 2.2 3.9 4.9 6.5 8.8 8.7.2.1.5.3.9.5s.7.4 1 .4c.6 0 1.4-1 2.3-2.1.8-1 1.7-2 2.4-2 .1 0 .5.1 1 .4 1.1.6 2.4 1.4 3.6 2.1 1.2.7 1.3.8 2.1 1.2.4.2.7.5.8.7v.5c0 .4-.1 1-.2 1.6-.1.6-.3 1.2-.5 1.6-.5 1-1.7 1.9-3 2.5-1.4.6-2.9 1-3.9 1-2.1 0-4.1-.8-6-1.6-3.3-1.2-6.2-3.2-8.7-5.6-2.5-2.4-4.7-5.3-6.4-8.3-.7-1.1-1.4-2.6-2.1-4.2-.5-1.4-1-2.9-1-4.2z"/></svg>