<?xml version="1.0" encoding="utf-8"?>
<!-- Generator: Adobe Illustrator 17.1.0, SVG Export Plug-In . SVG Version: 6.00 Build 0)  -->
<!DOCTYPE svg PUBLIC "-//W3C//DTD SVG 1.1 Tiny//EN" "http://www.w3.org/Graphics/SVG/1.1/DTD/svg11-tiny.dtd">
<svg version="1.1" baseProfile="tiny" id="Layer_1" xmlns="http://www.w3.org/2000/svg" xmlns:xlink="http://www.w3.org/1999/xlink"
	 x="0px" y="0px" viewBox="0 0 32 32" xml:space="preserve">
<path d="M9,16c0,1.1-0.9,2-2,2H2c-1.1,0-2-0.9-2-2s0.9-2,2-2h5C8.1,14,9,14.9,9,16z M32,24c0,1.1-0.9,2-2,2h-5c-1.1,0-2-0.9-2-2
	s0.9-2,2-2h5C31.1,22,32,22.9,32,24z M21,8c0,1.1-0.9,2-2,2h-5c-1.1,0-2-0.9-2-2s0.9-2,2-2h5C20.1,6,21,6.9,21,8z M7,12V2.5
	C7,1.1,5.9,0,4.5,0S2,1.1,2,2.5V12H7z M2,20v9.5C2,30.9,3.1,32,4.5,32S7,30.9,7,29.5V20H2z M14,12v17.5c0,1.4,1.1,2.5,2.5,2.5
	s2.5-1.1,2.5-2.5V12H14z M19,4V2.5C19,1.1,17.9,0,16.5,0S14,1.1,14,2.5V4H19z M30,20V2.5C30,1.1,28.9,0,27.5,0S25,1.1,25,2.5V20H30z
	 M25,28v1.5c0,1.4,1.1,2.5,2.5,2.5s2.5-1.1,2.5-2.5V28H25z"/>
</svg>
