<svg baseProfile="tiny" xmlns="http://www.w3.org/2000/svg" viewBox="0 0 32 32"><path d="M10.3 9.1c-.1-1.4-.1-2.6.2-3.5.2-1 .6-1.8 1.1-2.4.5-.6 1.1-1 1.8-1.3.6-.3 1.4-.5 2.3-.6.8-.1 1.5 0 2.3.2.5.2 1 .5 1.5.9l.3.3.2.2c.1.1.6.3.7.5.3.4.6 1 .7 1.3.2.7.3 1.1.3 1.9v2.6l.1.9c.1.7 0 1.4-.1 2.1-.1.4-.2.9-.4 1.3l-.7 1c-.2.3-.2.7-.3 1l-.2.9c-.1.2-.1.4-.2.5-.1.2-.2 1-.3 1.3.1 0 .2.5.4.5v.2c.3.3.8.7 1.2 1 .2.1.4.3.5.4.4.2.8.3 1.3.5.6.3 1.2.5 1.9.8l1.8.8c.4.2.8.4 1.2.5l.3.1c.4.2.8.3 1.1.4.6.2 1.1.5 1.5.9.3.3.5.6.7 1l.1.3c.1.5.3 1.1.3 1.7v2.7h-31.9v-2.7c.1-.6.2-1.2.3-1.7 0-.1 0-.2.1-.2.2-.4.4-.8.8-1.1.4-.4.9-.7 1.5-.9.3-.1.7-.2 1.1-.4.1 0 .1 0 .2-.1.4-.2.9-.4 1.4-.6.6-.3 1.2-.5 1.9-.8l1.5-.6.5-.2c.3-.1.6-.2.8-.3l.9-.6c.4-.3.7-.7 1.1-.9 0 0 .1 0 .1-.1l.2-.3-.4-1.6v-.2c0-.1-.1-.3-.1-.5l-.1-.7-.2-.9-.5-.4c-.3-.5-.6-1.2-.7-2-.1-.5-.2-1.1-.2-1.5-.1-.6.1-1 .1-1.6z"/></svg>